<?xml version="1.0" standalone="no"?>
<!DOCTYPE svg PUBLIC "-//W3C//DTD SVG 20010904//EN"
 "http://www.w3.org/TR/2001/REC-SVG-20010904/DTD/svg10.dtd">
<svg version="1.0" xmlns="http://www.w3.org/2000/svg"
 width="1147.000000pt" height="1147.000000pt" viewBox="0 0 1147.000000 1147.000000"
 preserveAspectRatio="xMidYMid meet">
<metadata>
Created by potrace 1.14, written by Peter Selinger 2001-2017
</metadata>
<g transform="translate(0.000000,1147.000000) scale(0.100000,-0.100000)"
fill="#000000" stroke="none">
<path d="M5409 10805 c-3 -2 -52 -6 -109 -9 -202 -11 -295 -17 -320 -21 -14
-2 -59 -7 -100 -10 -99 -8 -148 -14 -190 -25 -19 -5 -48 -12 -65 -14 -35 -7
-70 -14 -105 -21 -14 -3 -36 -8 -50 -11 -14 -3 -36 -7 -50 -10 -14 -3 -44 -12
-68 -20 -23 -7 -49 -14 -56 -14 -21 0 -366 -100 -411 -120 -11 -4 -69 -26
-130 -49 -416 -153 -861 -383 -1250 -646 -159 -108 -219 -149 -225 -155 -3 -3
-30 -25 -60 -48 -30 -24 -68 -54 -85 -68 -16 -13 -66 -54 -110 -91 -44 -36
-129 -111 -189 -167 -59 -55 -115 -105 -124 -110 -8 -5 -29 -25 -46 -44 -17
-20 -71 -77 -121 -128 -49 -51 -101 -105 -114 -120 -26 -32 -72 -87 -171 -203
-36 -42 -72 -86 -80 -98 -8 -11 -52 -72 -98 -135 -107 -145 -101 -137 -173
-248 -146 -223 -259 -433 -405 -748 -19 -40 -46 -96 -60 -125 -27 -55 -152
-388 -177 -472 -8 -27 -33 -106 -55 -175 -46 -146 -111 -405 -142 -573 -24
-128 -24 -128 -40 -297 -5 -63 -13 -128 -16 -145 -8 -39 -8 -1031 -1 -1155 8
-126 15 -201 27 -280 5 -36 12 -87 15 -115 3 -27 12 -75 20 -105 7 -30 16 -73
19 -95 10 -70 54 -254 114 -467 l57 -208 265 5 c146 3 281 7 300 9 19 2 67 7
105 10 39 4 77 9 85 11 8 2 33 6 55 10 116 17 343 82 465 134 36 16 108 41
160 57 82 24 112 29 215 29 115 0 122 -1 170 -29 28 -17 133 -112 240 -220
257 -258 308 -294 459 -320 77 -13 90 -13 171 -2 101 15 175 70 175 131 0 54
-29 92 -110 145 -43 28 -92 66 -108 85 -17 18 -37 37 -44 42 -20 12 -118 130
-118 141 0 5 -6 15 -14 21 -21 18 -119 166 -162 246 -20 39 -43 77 -50 85 -6
8 -24 49 -39 90 -40 110 -41 198 -3 318 26 84 34 98 95 163 43 46 88 81 126
101 74 37 82 39 188 43 124 4 249 -37 359 -118 88 -65 184 -175 295 -337 112
-164 158 -205 236 -214 47 -5 116 19 155 54 24 20 45 30 67 30 41 0 113 -44
192 -119 163 -152 346 -323 399 -372 32 -30 77 -71 100 -93 124 -116 322 -230
456 -262 41 -9 77 -17 80 -17 3 1 13 -3 24 -9 50 -27 287 -28 491 -3 112 14
132 16 160 21 17 2 41 6 55 9 14 3 41 7 60 10 19 3 42 8 50 10 8 2 42 7 75 11
33 3 62 7 65 9 16 10 138 20 235 19 103 -1 118 -4 249 -48 149 -51 183 -55
261 -32 392 113 336 108 567 52 164 -39 283 -50 379 -35 32 5 129 30 215 55
86 25 175 46 197 47 l40 3 -6 -66 c-4 -36 -20 -112 -38 -170 -53 -181 -106
-409 -128 -555 -45 -290 -74 -369 -216 -578 -33 -48 -64 -96 -70 -106 -10 -17
-56 -84 -188 -276 -354 -511 -527 -773 -527 -800 0 -8 82 -5 120 5 120 31 193
57 245 90 41 25 158 123 205 170 14 15 35 33 47 41 12 9 81 71 153 140 72 68
139 128 148 133 9 6 45 33 78 60 58 48 121 82 428 233 66 32 127 69 137 83 11
14 27 55 38 92 40 147 89 179 376 242 61 13 131 27 155 31 25 3 70 10 100 15
96 17 249 25 460 25 180 0 238 -3 350 -20 65 -9 192 -19 251 -19 130 1 178 50
317 329 83 165 114 230 206 430 75 163 148 349 221 570 46 137 62 192 80 275
2 8 12 51 23 95 20 76 44 189 57 265 34 195 45 267 50 331 3 41 8 88 11 104 3
17 7 57 9 90 2 33 7 112 11 175 4 63 8 268 7 455 0 298 -3 391 -18 545 -2 19
-6 73 -10 119 -4 46 -8 92 -10 102 -2 9 -7 50 -10 91 -4 40 -8 75 -10 78 -2 3
-6 26 -10 50 -9 64 -69 338 -104 477 -50 194 -201 615 -289 803 -22 47 -50
108 -62 135 -34 75 -120 248 -129 260 -5 5 -26 44 -47 85 -21 41 -110 187
-198 323 -89 136 -165 256 -171 265 -5 9 -15 21 -21 27 -18 17 -181 229 -185
241 -2 7 -26 36 -54 66 -27 30 -84 92 -125 138 -89 100 -147 158 -300 300 -63
58 -142 132 -177 164 -35 32 -72 66 -82 75 -52 44 -62 51 -67 51 -2 0 -13 8
-24 18 -111 103 -475 355 -655 454 -55 30 -131 72 -170 93 -38 21 -74 41 -80
45 -10 7 -79 45 -215 118 -41 22 -104 52 -140 67 -36 15 -83 35 -105 45 -192
84 -508 198 -670 243 -358 99 -566 145 -730 163 -33 3 -68 8 -77 9 -9 2 -59 7
-110 10 -51 4 -109 9 -128 11 -51 6 -866 14 -871 9z m1411 -1179 c69 -5 114
-11 158 -21 15 -3 36 -7 47 -9 118 -24 177 -45 319 -117 147 -74 226 -139 332
-271 36 -45 77 -102 92 -127 14 -25 29 -48 33 -51 10 -8 92 -145 148 -250 81
-149 261 -526 261 -545 0 -3 9 -24 19 -48 50 -109 200 -499 251 -652 131 -389
206 -728 196 -879 -4 -56 -19 -103 -89 -275 -47 -113 -101 -244 -122 -289 -46
-103 -40 -114 39 -77 120 57 268 204 366 365 50 83 131 175 171 196 33 17 56
13 204 -37 272 -92 590 -245 729 -352 64 -49 209 -196 253 -257 70 -95 136
-227 149 -300 3 -14 12 -54 20 -90 15 -63 20 -209 9 -260 -2 -14 -14 -72 -25
-130 -27 -140 -53 -215 -116 -337 -91 -177 -173 -291 -300 -417 -98 -98 -130
-123 -320 -252 -233 -157 -332 -206 -624 -310 -139 -49 -425 -125 -525 -139
-22 -3 -47 -8 -55 -10 -8 -3 -35 -7 -60 -10 -25 -3 -56 -7 -70 -10 -61 -13
-77 -16 -110 -21 -19 -3 -46 -7 -60 -10 -14 -3 -79 -7 -145 -9 -66 -3 -138 -8
-160 -12 -49 -9 -943 -9 -1005 0 -40 6 -112 11 -272 22 -26 1 -65 6 -85 10
-52 10 -71 13 -123 19 -25 3 -54 8 -65 10 -11 2 -63 11 -115 20 -90 15 -147
27 -367 75 -164 36 -404 99 -558 147 -82 25 -181 54 -220 65 -38 10 -155 48
-260 84 -104 37 -201 71 -215 75 -14 5 -52 19 -85 33 -33 13 -123 51 -200 82
-77 32 -162 67 -190 77 -27 11 -54 23 -60 27 -5 4 -32 16 -60 26 -27 10 -106
45 -175 77 -69 32 -152 71 -185 86 -99 45 -343 171 -460 237 -60 34 -137 77
-170 95 -257 142 -460 268 -640 396 -49 36 -117 83 -150 106 -52 36 -171 132
-185 149 -3 3 -20 14 -39 24 -57 29 -502 484 -587 600 -76 103 -174 313 -189
405 -31 180 18 324 159 468 140 144 290 226 502 272 141 30 226 36 799 57 116
4 248 8 295 8 l85 0 -1 -45 c0 -25 -4 -81 -8 -125 -15 -152 -15 -190 0 -275 8
-46 24 -104 35 -127 47 -96 196 -263 314 -353 204 -153 600 -353 1005 -508
478 -183 658 -242 1020 -335 162 -42 331 -77 440 -92 24 -4 47 -8 51 -11 14
-8 118 -17 204 -17 92 0 154 13 180 40 26 26 18 77 -20 125 -19 24 -58 72 -86
108 -50 64 -120 199 -173 332 -14 37 -49 115 -76 173 -28 59 -50 110 -50 115
0 17 -105 112 -144 129 -38 18 -363 129 -396 136 -29 7 -325 85 -355 95 -16 5
-41 11 -55 14 -14 3 -104 25 -200 50 -163 42 -220 57 -447 120 -175 49 -517
198 -647 284 -200 130 -276 214 -313 344 -17 60 -25 279 -13 336 5 20 11 53
14 72 3 19 14 80 25 135 11 55 23 118 26 140 4 22 8 48 11 57 3 9 7 25 9 35 2
10 8 38 15 63 6 25 13 59 16 75 8 45 175 619 184 630 4 6 29 53 56 105 50 98
122 182 179 212 17 8 69 36 116 61 126 66 204 81 387 73 81 -3 194 -7 252 -9
58 -3 121 -8 140 -12 19 -4 76 -9 125 -10 50 -1 110 -5 135 -8 79 -12 257 -19
525 -19 280 -1 320 4 550 60 66 17 136 33 155 36 19 3 46 8 60 11 57 12 77 15
125 21 28 3 61 7 75 10 14 2 66 7 115 10 50 3 91 7 92 8 2 2 29 0 153 -8z"/>
<path d="M6488 9355 c-2 -1 -28 -5 -58 -9 -148 -16 -350 -65 -389 -94 -15 -11
-26 -28 -26 -38 0 -16 7 -19 40 -17 192 11 360 10 435 -1 103 -16 84 -12 152
-32 100 -30 132 -73 101 -136 -20 -41 -69 -74 -189 -123 -60 -26 -118 -55
-128 -65 -19 -18 -19 -20 -2 -39 26 -29 154 -44 316 -38 74 2 146 7 160 10 14
3 46 8 72 12 65 9 191 51 262 88 32 17 80 53 107 80 44 46 48 54 51 105 3 52
0 59 -32 95 -19 22 -54 52 -77 68 -52 36 -199 96 -256 104 -23 3 -64 13 -90
20 -35 11 -104 14 -247 14 -109 -1 -200 -2 -202 -4z"/>
<path d="M6958 2471 c-13 -9 -47 -39 -77 -68 -101 -97 -179 -105 -345 -38
-145 58 -189 71 -261 74 -33 1 -62 4 -65 6 -12 8 -128 -31 -153 -52 -71 -56
-67 -172 7 -206 17 -8 56 -18 86 -22 79 -9 172 -41 280 -97 119 -61 213 -91
259 -83 123 23 288 171 341 304 48 122 4 235 -72 182z"/>
</g>
</svg>
